<?xml version="1.0" encoding="utf-8"?>
<!-- Generator: Adobe Illustrator 24.3.0, SVG Export Plug-In . SVG Version: 6.00 Build 0)  -->
<svg version="1.1" id="Layer_1" xmlns="http://www.w3.org/2000/svg" xmlns:xlink="http://www.w3.org/1999/xlink" x="0px" y="0px"
	 viewBox="0 0 264.01 264" style="enable-background:new 0 0 264.01 264;" xml:space="preserve">
<style type="text/css">
	.st0{fill:#FFFFFF;}
	.st1{fill:#EE2F43;}
	.st2{fill:#006B4F;}
	.st3{fill:#F8991D;}
</style>
<g>
	<g>
		<g>
			<path class="st0" d="M131.98,261.79c71.68,0,129.81-58.09,129.81-129.82c0-71.67-58.14-129.75-129.81-129.75
				C60.31,2.22,2.22,60.3,2.22,131.97C2.22,203.69,60.31,261.79,131.98,261.79z"/>
			<path class="st1" d="M131.98,220.14c48.67,0,88.16-39.42,88.16-88.17c0-48.66-39.49-88.14-88.16-88.14
				c-48.68,0-88.15,39.49-88.15,88.14C43.83,180.72,83.3,220.14,131.98,220.14z"/>
			<g>
				<polygon class="st1" points="238.48,145 241.68,154.87 252.06,154.87 243.66,160.97 246.87,170.84 238.48,164.74 230.08,170.84 
					233.29,160.97 224.89,154.87 235.27,154.87 				"/>
				<polygon class="st1" points="25.16,145 28.36,154.87 38.74,154.87 30.34,160.97 33.55,170.84 25.16,164.74 16.76,170.84 
					19.97,160.97 11.57,154.87 21.95,154.87 				"/>
				<polygon class="st1" points="222.17,179.12 225.38,188.99 235.75,188.99 227.36,195.08 230.56,204.95 222.17,198.85 
					213.78,204.95 216.98,195.08 208.59,188.99 218.96,188.99 				"/>
				<polygon class="st1" points="41.69,179.12 44.9,188.99 55.28,188.99 46.88,195.08 50.09,204.95 41.69,198.85 33.3,204.95 
					36.51,195.08 28.11,188.99 38.49,188.99 				"/>
			</g>
			<g>
				<g>
					<path class="st2" d="M18.65,98.12c-0.54,1.57-1.21,4.23-1.43,6.32l2.6,0.48c0,0-4.69,4.54-4.72,10.45
						c-0.06,4.45,4.22,10.14,6,9.09c0.92-0.51,1.86-2.18,0.92-6.14c-0.32-1.49,0.32-5.2,1.19-5.2c0.82,0.05,2.71,1.03,3.64,7.09
						c1.19-0.71,2.76-1.95,2.76-1.95s-1.79-8.2-5.19-8.17c-4.49,0.06-3.63,7.47-4.97,7.37c-0.92-0.03-3.39-6.99,2.56-11.89
						c1,0.18,10.61,2.54,10.61,2.54c0.22-1.08,0.75-3.68,0.75-3.68l-12.48-3.13l0.77-2.31L18.65,98.12z"/>
					<path class="st2" d="M30.08,87.36l3.97-0.32c0.42,9.8-3.32,10.72-5.63,11.03c-3.19,0.38-12.45-10.64,1.4-19.86l-2.31-1.56
						c0.45-1.1,1.74-3.82,3.17-5.57l2.48,1.36c0,0-1.02,1.36-1.69,2.59l11.4,6.38c0,0-1,1.8-1.62,3.19c0,0-8.09-4.27-8.02-4.32
						c-9.72,2.24-7.5,16.35-5.34,16.29C29.63,96.5,31.78,94.99,30.08,87.36z"/>
					<path class="st2" d="M99.45,23.49l3.52,2.74c0,0,2.88-6.8,7.21-3.87c2.36,1.59-2.6,8.82-8.88,8.24
						c-5.06-0.44-10.18-5.08-10.18-5.08l-1.21,0.5c0,0,6.33,9.09,16.89,6.85c3.72-0.76,7.68-7.58,6.08-10.42
						C111.25,19.54,104.87,17.41,99.45,23.49z"/>
					<path class="st2" d="M182.08,37.47c0,0,5.68,4.88,8.12,11.61c-0.23,0.38-0.96,1.74-0.96,1.74s-0.27-4.68-8.97-10.44
						C180.52,39.86,182.08,37.47,182.08,37.47z"/>
					<path class="st2" d="M200.4,35.11c0,0,21.82,14.97,35.47,39.41c3.89,6.91,7.06,14.98,9.4,23.92c0.88,3.47-1.12,9.88-3.13,10.03
						c1.98,1.25,7.06,6.13,2.26,11.49c1.97,0,5.08-0.23,5.08-0.23s0.32,4.47,0.38,6.29h-2.96c0.12-0.94-0.13-2.92-0.13-2.92
						l-13.07,0.64c-0.02-1.87-0.27-3.29-0.27-3.29l6.52-0.34c0,0,4.02-0.31,3.67-5.36c-0.21-2.78-3.46-4.82-4.56-4.08
						c-1.04,0.75-0.88,3.1,0.83,5.26c-0.68,0.56-3.03,2.14-3.03,2.14s-3.88-2.97-0.05-8.53c-2.11-1.17-4.52-3.97-4.29-8.76
						c0.9-0.1,3.95,0,3.95,0s-1.07,7.15,2.38,6.85c0.92-0.05,4.89-1.6,3.07-10.62c-0.49-2.34-4.94-14.29-7.21-17.54
						c-1.28,0.7-6.92,3.45-6.92,3.45s6.07,5.7,7.29,8.13c-0.14,1.26-1.33,4.71-1.33,4.79c-2.41-1.4-4.56-3.25-9.59-0.21
						c-0.51-0.56-0.77-1.37-0.77-1.37s3.31-2.77,7.59-2.97c-0.38-0.48-3.19-3.79-7.33-6.05c-0.18-0.71-0.45-4.42-0.45-4.42
						l9.82-4.68c0,0-5.66-7.88-14.02-4.82c-1.65,0.59-3.03,5.5,1.36,6.77c-0.15,0.82-1.25,2.86-1.25,2.86s-6.09-3.25-2.22-9.86
						c1.26-2.12,6.95-4.1,11.87-2.12c-0.41-0.66-4.63-6.82-5.11-7.32c-0.68,0.39-10.89,7.36-10.89,7.36l-2.03-2.43l10.66-7.77
						l-3.19-3.76l-10.3,8.21l-2-2.25c0,0,3.99-3.04,5.01-4.06c1.07-1.02-0.43-5.05-7.27-3.1c0.02-1.31,0.95-9.46-6.97-8.96
						c-1.3,0.07-1.86,0.24-2.03,0.94c-0.24,1.18,1.2,3.36,4.89,3.13c0.02,0.41,0.1,3.37,0.1,3.37s-8.42-0.31-6.31-7.57
						c0.54-1.92,8.91-7.7,11.87,4.75c0.96,0.08,4.88-0.95,7.2,5.75c0.6-0.27,3.52-2.72,3.52-2.72s-7.89-8.3-17.27-15.05L200.4,35.11
						z"/>
					<path class="st2" d="M102.84,240.94l-0.1,2.71c0,0,3.3,0.76,4.79,2.83c0.24-0.99,0.88-2.22,0.88-2.22
						S107.27,241.56,102.84,240.94z"/>
					<path class="st2" d="M186.89,231.23l0.13,2.48c0,0-2.83-0.11-5.4,1.87c-0.2-0.61-0.68-2.51-0.68-2.51
						S182.96,231.37,186.89,231.23z"/>
					<path class="st2" d="M143.52,13.83c0.38-2.46-6.07-12.15-19.36-6.82c0.25,0.97,0.66,3.33,0.66,3.33s15.01-5.77,15.85,3.29
						c-7.06-0.73-31.01-1.98-57.38,10.16c-18.1,7.48-34.12,22.95-36.48,25.85l2.88,3.1c0,0-13.37-2.95-12.75,13.37
						c0.06,1.47,2.71,1.13,3.07-0.22c0.55-2.21,3.93-3.77,3.72,0.86c1.23-0.12,3.16-0.12,3.16-0.12l4.21-12.28l4.8,4.88
						c0,0-4.37,0.51-5.64,3.26c-1.63,3.56-1.92,8.44-4.57,9.04c-0.67,0.18-3.39-0.83-3.97-1.97c-0.11,0.48-0.13,2.1-0.13,2.1
						s2.32,2.41,4.98,2.24c1.43-0.11,4.96-0.9,6.46-8.92c0.19-0.94,0.84-5.17,5.48-4.56c1.07-1.09,1.55-1.53,1.55-1.53l-8.74-9.79
						c0,0,5.79-5.77,9.73-8.44c-0.13,1.05-0.09,3.91,2.04,4.51c7.44,2.13,8.21-4.78,9.11-4.6c0.88,0.26,1.47,6.61-6.18,7.86
						c-5.1,0.8-9.32-1.83-9.49-1.45c-0.15,0.42-0.54,1.45-0.54,1.38c3.58,1.92,11.71,3.15,16.41,0.74
						c4.41-2.2,5.57-11.44-2.93-10.89c-1.21,5.85-4.45,5.57-5.26,5.04c-0.86-0.54-1.2-4.98,4.67-8.26c1.28,0.37,7.06,0.95,8.46,0.1
						c-0.06,1.17-1.27,5.47,2.08,10.22c0.84-0.09,2.04-0.76,2.04-0.76s-3.49-3.07,0.25-11.64c-0.46-0.52-1.73-1.76-1.73-1.76
						s-1.51,2.89-5.13,2.83c-2.05-0.06-3.54,0.23-3.71-0.49c0.6-0.26,8.96-5.17,12.1-6.59L88.19,39c1-0.98,3.08-1.29,3.08-1.29
						l-4.91-12.1c0,0,17.73-9.15,44.71-9.47c0.66-0.02,1.33,2.41-0.06,2.9c-1.79-0.46-3.23,1-3.23,1
						c-0.26-1.48-6.42-6.06-10.58,0.87c0.54,0.57,2.67,2.28,2.67,2.28s3.27-6.38,6.91-2.45c-0.66,0.68-2.19,2.21-2.19,2.21
						l2.71,2.31c0,0,2.81-4.14,4.67-3.51c1.44,0.45,1.2,1.68,0.66,5.63c-0.23-0.11-1.69-1.58-4.97-1.06
						c-2.52,0.4-7.25,2.65-7.25,0.68c0-2,0.27-2.39,0.27-2.39l-1.97,0.65c0,0-0.29,5.04,2.88,5.33c3.62,0.3,7.32-2.01,9.79-1.87
						c1.47,0.1,2.57,0.53,2.57,0.53h1.69c0,0,1.75-7.94-1.56-9.42c1.15-0.94,0.96-2.04,0.6-3.65c1.6,0.06,4.21,0.08,6,0.29
						l-1.33,13.01c1.09-0.51,3.03,0.25,3.03,0.25l1.53-12.98l1.86,0.25l0.26-2.91C146.02,14.09,143.56,13.85,143.52,13.83z
						 M45.62,63.47c0,0-3.09-0.6-3.93-0.67c-0.33-2.44,2.24-8.09,6.33-6.95L45.62,63.47z"/>
					<path class="st2" d="M155.7,15.62c0,0-0.44,1.71-0.74,2.78c11.46,2.62,15.17,4.28,16.02,4.55c0,0-0.47,0.99-0.47,0.94
						c-4.45-0.53-16.44-0.85-16.44-0.85s0.36,2.53,0.65,3.6c11.83,2.72,12.72,8.82,12.72,8.82s0.93,0.38,1.32,0.57l5.33-11.87
						c0,0,2.66,0.95,4.45,1.78l-5.8,11.71c0,0,2.23,0.95,2.98,1.42l5.6-11.87c0,0,1.11,0.59,1.89,0.93l1.5-2.43
						C178.58,22.2,163.61,16.95,155.7,15.62z M167.36,31.15c0,0-2.5-3.28-4.19-3.93c2.69,0.16,5.87,0,5.87,0L167.36,31.15z"/>
					<path class="st2" d="M189.67,28.15c-2.11-0.07-5.54,1.47-5.67,5.01c-0.06,3.56,2.65,5.11,5.91,5.37
						c3.12,0.25,5.72-1.87,5.85-5.18C195.86,29.64,191.73,28.22,189.67,28.15z M185.62,33.57c0-3.34,9.04-3.12,9.04-0.23
						C194.66,36.77,185.62,37.12,185.62,33.57z"/>
					<path class="st2" d="M187.58,216.77l2.56-1.72c0,0-1.17-1.51-2.01-2.58c-2.47,1.48-21.3,17.5-56.15,17.5
						c-34.81,0-57.57-18.17-59.18-19.6c0,0.14-1.95,2.57-1.95,2.57s1.02,0.72,1.54,1.16c-0.3,0.8-0.1,1.83,0.94,2.49
						c3.65,2.33,3.84,3.46,4.01,4.86c0.18,1.34-1,2.64-3.24,2.9c-2.8,0.29-3.2-1.38-3.15-3.64c0.08-0.09-0.83-0.13-1.68-0.13
						c-0.73,3.45,1.11,6.52,3.3,7.31c2.12,0.74,9.79-0.93,12.46-0.23c2.81,0.67,2.53,4.72,2.53,4.72l-2.26,4.07
						c0,0,1.73,0.85,3.47,1.43c0,0,4.98-11.18,5.38-11.85c11.17,4.57,21.9,6.04,21.9,6.04l-0.13,1.08l-18.21-0.18
						c0,0,0.08,2.53,0,3.9c11.06,0.38,16.59,8.06,16.59,8.06s1.58,0.28,3.44,0.5c0,0,1.68-11.39,1.96-12.88
						c13.03,1.54,23.31,0.11,23.31,0.11v1.21l-17.81,5.39c0,0,1.35,2.46,1.92,3.12c12.14-2.05,17.15,3.23,17.15,3.23
						s1.62-0.03,3.19-0.28c0,0-0.4-8.27-0.34-8.94c6.27-1.66,7.89-0.51,8,0.42c0.15,1.55-1.28,1.75-4.42,2.31
						c0,0,1.13,2.66,1.2,2.94c4.71-0.41,5.22-4.56,5.1-5.32c-0.35-2-2.16-3.85-10.2-3.22c0,0.05,0-1.25,0-1.25
						c4.18-0.56,12.95-2.83,12.95-2.83l3.66,12.46c0,0,2.12-0.32,3.45-0.99l-3.75-12.51c10.8-3.17,21.24-9.54,21.24-9.54l0.39,0.69
						c-1.39,1.26-14.44,11.92-14.44,11.92s2.21,1.88,3.07,2.24c7.06-5.94,18.92-4.54,18.92-4.54s0.44,0,1.72-1.07L187.58,216.77z
						 M88.9,228.8c-0.4-1.27-2.81-5.02-3.94-5.38c-2.22-0.73-4.95-0.26-6.19-0.38c0.36-1.96-0.23-4.87-0.23-4.87
						c5.72,3.37,12.05,6.37,12.05,6.37S89.28,228.18,88.9,228.8z M114.55,242.05c-1.53-2.8-6.25-5.18-6.25-5.18l7.11-0.14
						C115.41,236.73,114.73,241.13,114.55,242.05z M137.04,239.3c0.59-0.27,6.29-2.09,6.29-2.09l0.44,5.55
						C143.78,242.76,139.06,239.7,137.04,239.3z M181.54,227.1l4.89-4.31l2.71,4.42L181.54,227.1z"/>
				</g>
			</g>
			<path id="path1899" class="st3" d="M174.33,201.44c-0.29-0.6-0.89-1.7-1.34-2.45c-0.45-0.75-0.83-1.64-0.83-1.98
				c-0.01-0.47-0.4-1.08-1.62-2.48l-1.61-1.85l-0.26-1.87c-0.19-1.36-0.47-2.32-1.04-3.52c-0.7-1.47-0.86-1.67-1.53-1.85
				c-0.41-0.11-0.85-0.21-0.99-0.21c-0.46,0-0.7-1.28-0.49-2.59c0.16-1,0.14-1.33-0.13-1.78c-0.31-0.53-0.29-0.63,0.34-2
				c0.83-1.82,1.02-3.44,0.55-4.86c-0.19-0.57-0.34-1.2-0.34-1.39s-0.33-1.02-0.74-1.85c-0.74-1.49-0.95-2.6-0.63-3.3
				c0.13-0.28,0.09-0.34-0.15-0.24c-0.59,0.23-1.12-0.6-1.28-2.01c-0.2-1.73-0.95-3.5-2.25-5.3c-0.58-0.8-1.14-1.74-1.24-2.08
				c-0.27-0.89-3.32-3.45-4.11-3.45c-0.32,0-0.75-0.19-0.96-0.42c-0.28-0.31-0.42-0.36-0.54-0.16c-0.12,0.19-0.26,0.17-0.57-0.12
				c-0.3-0.27-0.51-0.32-0.77-0.18c-0.21,0.11-1.56,0.16-3.19,0.1c-2.78-0.1-2.86-0.12-3.99-0.81c-0.99-0.6-1.34-0.7-2.5-0.71
				c-0.78,0-1.57-0.13-1.87-0.31c-0.86-0.49-1.59-0.38-2.45,0.37c-1.37,1.2-1.84,1.42-2.49,1.17c-0.32-0.12-0.88-0.16-1.25-0.09
				c-0.52,0.1-0.77,0.02-1.11-0.32c-0.24-0.24-0.48-0.4-0.53-0.36c-0.2,0.2,0.44,1.4,0.84,1.58c0.24,0.11,0.61,0.56,0.82,1.01
				c0.21,0.44,0.47,0.97,0.57,1.17c0.1,0.2,0.18,0.63,0.18,0.96c0,0.39,0.4,1.16,1.17,2.23c1.7,2.37,1.89,3.35,1.09,5.74
				c-0.33,0.98-0.74,1.65-1.51,2.49c-0.59,0.63-1.3,1.65-1.58,2.26c-0.53,1.14-0.68,1.21-1.71,0.78c-0.5-0.21-1.75,1.77-1.93,3.04
				c-0.08,0.56-0.31,1.12-0.54,1.34c-0.23,0.2-0.47,0.71-0.53,1.13c-0.11,0.7-0.22,0.79-1.37,1.24c-1.23,0.48-1.26,0.48-2.08,0.11
				c-0.72-0.33-0.81-0.44-0.71-0.91l0.12-0.54l-0.34,0.47c-0.39,0.54-0.67,0.58-1.23,0.18c-0.31-0.23-0.34-0.35-0.16-0.58
				c0.13-0.16,0.27-0.85,0.3-1.53c0.06-1.12,0.11-1.25,0.59-1.38c0.42-0.12,0.35-0.15-0.35-0.17c-0.71-0.02-0.9-0.11-1.02-0.49
				l-0.15-0.47l-0.21,0.47c-0.53,1.19-1.4-0.12-1.4-2.1c0-0.75-0.08-1.41-0.18-1.47c-0.1-0.06-0.24-0.82-0.31-1.68
				c-0.11-1.35-0.07-1.67,0.28-2.25c0.44-0.72,0.55-1.62,0.21-1.62c-0.11,0-0.21,0.18-0.21,0.39s-0.25,0.83-0.55,1.37l-0.55,0.98
				l0.36,1.32c0.47,1.72,0.29,3.65-0.34,3.65c-0.37,0-0.38,0.03-0.08,0.33c0.19,0.19,0.33,0.69,0.33,1.2c0,0.52,0.17,1.12,0.42,1.5
				c0.57,0.86,0.52,1.26-0.19,1.56c-0.33,0.14-0.65,0.42-0.7,0.62c-0.07,0.28-0.4,0.4-1.36,0.5c-2.02,0.21-3.09-0.37-2.83-1.54
				c0.09-0.4,0.07-0.44-0.11-0.19c-0.4,0.56-0.25,1,0.6,1.72c1.01,0.87,1.1,1.52,0.24,1.71c-0.33,0.07-0.84,0.07-1.13,0
				c-0.49-0.12-0.53-0.08-0.5,0.56c0.03,0.58-0.05,0.71-0.45,0.76c-0.63,0.09-1.21-0.45-1.38-1.28c-0.07-0.37-0.19-0.93-0.26-1.25
				c-0.09-0.43,0-0.71,0.33-1.07c0.62-0.66,0.81-1.51,0.56-2.45c-0.3-1.13-0.64-0.98-0.67,0.29c-0.01,0.67-0.12,1.12-0.29,1.17
				c-0.71,0.24-1,0.82-0.89,1.78c0.09,0.81,0.03,1.05-0.44,1.6c-0.3,0.36-0.55,0.74-0.55,0.84c0,0.31-0.78,0.22-1.13-0.14
				c-0.38-0.38-0.47-3.1-0.12-3.32c0.11-0.07,0.21-0.4,0.21-0.73s-0.09-0.66-0.21-0.73c-0.11-0.07-0.21,0.06-0.21,0.29
				c0,0.23-0.23,0.65-0.52,0.94c-0.29,0.29-0.52,0.7-0.52,0.91c0,0.22-0.07,0.46-0.16,0.55c-0.09,0.09-0.18,0.55-0.2,1.03
				c-0.13,2.52-0.38,3.06-1.41,3.06c-0.82,0-1.12-0.53-0.72-1.27c0.19-0.36,0.17-0.68-0.13-1.55c-0.31-0.93-0.43-1.06-0.71-0.88
				c-0.25,0.15-0.52,0.12-0.97-0.11c-0.56-0.29-0.66-0.5-0.91-1.8c-0.21-1.1-0.22-1.6-0.05-1.98c0.24-0.53,0.12-1.93-0.19-2.12
				c-0.26-0.16-0.22-1.84,0.05-2.11c0.17-0.17,0.13-0.42-0.16-0.96c-0.55-1.02-1.36-2.67-1.55-3.17c-0.27-0.68-0.38-2.21-0.21-2.69
				c0.26-0.7-0.33-2.4-0.94-2.67c-0.6-0.27-0.64-0.61-0.18-1.31c0.18-0.28,0.29-0.63,0.24-0.77c-0.05-0.15-0.01-0.55,0.09-0.89
				c0.11-0.39,0.09-1.04-0.07-1.73c-0.19-0.84-0.19-1.16,0-1.34c0.3-0.3,0.32-2.04,0.03-2.04c-0.12,0-0.39-0.41-0.61-0.92
				c-0.22-0.51-0.56-1.01-0.75-1.12c-0.3-0.17-0.35-0.47-0.32-1.73c0.04-1.41,0.1-1.59,0.74-2.3c0.38-0.42,0.76-0.96,0.83-1.2
				c0.07-0.24,0.34-0.49,0.58-0.57c0.72-0.23-2.03-1.15-2.98-1c-0.45,0.07-1.04-0.01-1.49-0.2c-0.64-0.27-0.77-0.44-0.9-1.19
				c-0.13-0.76-0.08-0.94,0.4-1.44c0.34-0.35,0.54-0.8,0.54-1.19c0-0.34,0.14-0.81,0.31-1.03c0.17-0.22,0.31-0.58,0.31-0.8
				c0.01-0.38-0.01-0.38-0.41-0.02c-0.4,0.36-0.42,0.36-0.6-0.13c-0.11-0.28-0.57-0.77-1.04-1.09c-0.47-0.32-0.91-0.77-0.98-1
				c-0.07-0.23-0.38-0.5-0.69-0.61c-0.76-0.26-1.2-1.66-0.88-2.81c0.12-0.44,0.16-1.01,0.1-1.28c-0.07-0.27,0-0.63,0.15-0.81
				c0.15-0.18,0.32-0.72,0.39-1.2c0.11-0.8,0.17-0.88,0.85-0.98c0.4-0.06,1.04-0.29,1.42-0.52c0.65-0.39,0.69-0.47,0.59-1.35
				c-0.06-0.52-0.01-1.1,0.1-1.31c0.15-0.27,0.08-0.53-0.23-0.97c-0.61-0.86-0.62-2.92-0.01-3.08c0.32-0.08,0.42-0.28,0.41-0.87
				c-0.01-1.09-0.61-1.78-1.6-1.83c-2.91-0.13-3.34-0.27-5.5-1.85c-1.1-0.8-2.68-1.69-4.11-2.31l-2.33-1l-0.12-0.95
				c-0.06-0.52-0.39-1.47-0.72-2.11l-0.61-1.16l0.52-1.03c0.86-1.69,1.02-1.93,1.61-2.39c0.64-0.5,0.71-1.14,0.21-1.7
				c-0.43-0.47-0.27-0.64,1.02-1.06c1.07-0.35,1.07-0.35,1.93,0.96c0.11,0.17,0.49,0.37,0.83,0.44c0.57,0.12,0.68,0.04,1.2-0.82
				c0.32-0.52,0.57-1.1,0.57-1.28c0-0.18,0.29-0.84,0.65-1.46c0.57-0.99,0.64-1.29,0.57-2.4c-0.07-1.24-0.06-1.28,0.52-1.47
				c0.45-0.15,0.79-0.11,1.42,0.18c0.67,0.3,0.91,0.33,1.23,0.13c0.56-0.35,2.53-0.31,3.02,0.06c0.61,0.46,1.45,0.39,1.82-0.15
				l0.32-0.47l0.84,0.47c0.46,0.26,0.92,0.47,1.03,0.47c0.1,0,0.31-0.37,0.46-0.83c0.15-0.45,0.49-1.03,0.76-1.29
				c0.66-0.62,0.62-0.8-0.2-0.8c-0.38,0-0.87-0.14-1.09-0.31c-0.22-0.17-0.55-0.31-0.74-0.31c-0.45-0.01-1.02-0.67-1.02-1.18
				c0-0.23-0.1-0.51-0.23-0.64c-0.16-0.16-0.16-0.35,0-0.65c0.32-0.59,0.28-0.89-0.18-1.5c-0.32-0.42-0.45-0.47-0.66-0.26
				c-0.14,0.14-0.45,0.26-0.67,0.26c-0.23,0-0.59,0.16-0.81,0.36c-0.37,0.34-0.44,0.33-1.27-0.09c-0.48-0.25-1.22-0.51-1.64-0.59
				c-0.81-0.14-1.52-0.67-1.72-1.29c-0.07-0.2-0.38-0.52-0.71-0.71c-0.5-0.29-0.58-0.44-0.5-1.06c0.08-0.67,0-0.79-0.92-1.48
				c-0.56-0.41-1.47-1.21-2.03-1.79l-1.02-1.04l-0.93,0.4c-1.25,0.54-1.41,0.51-1.88-0.29c-0.51-0.86-0.77-3.25-0.37-3.41
				c0.15-0.06,0.38-0.52,0.5-1.02c0.13-0.5,0.43-1.05,0.68-1.23c0.4-0.28,0.42-0.38,0.2-0.91c-0.2-0.48-0.19-0.71,0.07-1.21
				c0.18-0.34,0.32-0.71,0.32-0.82s0.78-0.54,1.72-0.95c1.62-0.7,1.72-0.78,1.84-1.49c0.17-1.06,0.73-1.83,1.32-1.83
				c0.32,0,0.53-0.15,0.6-0.43c0.1-0.37,0.22-0.41,0.86-0.29c0.87,0.16,0.9,0.07,0.35-1.22c-0.34-0.8-0.51-0.95-1.16-1.07
				c-0.42-0.08-0.9-0.19-1.06-0.26c-0.18-0.07-0.3,0.02-0.3,0.22c0,0.51-0.61,0.4-0.86-0.17c-0.18-0.39-0.15-0.71,0.14-1.48
				c0.44-1.15,1.49-2.67,1.75-2.52c0.1,0.06,0.24,0.54,0.32,1.06c0.12,0.77,0.25,0.99,0.69,1.16c0.3,0.12,0.93,0.52,1.39,0.9
				c0.46,0.38,1.08,0.76,1.36,0.84c0.7,0.21,2.29,1.77,2.29,2.24c0,0.21,0.09,0.37,0.19,0.37c0.28,0,0.85,0.61,0.85,0.92
				c0,0.15-0.38,0.44-0.83,0.64c-0.46,0.21-0.83,0.45-0.83,0.55c0,0.17,0.72-0.05,1.47-0.45c0.65-0.35,1.35-0.03,1.74,0.77
				c0.38,0.79,0.82,0.84,0.93,0.11c0.04-0.28,0.27-0.5,0.61-0.59c0.44-0.11,0.64-0.01,1.08,0.52c0.39,0.48,0.71,0.66,1.18,0.66
				c0.35,0,0.69-0.05,0.76-0.12c0.15-0.15-0.3-1.13-0.52-1.13c-0.09,0-0.25-0.24-0.36-0.52c-0.11-0.3-0.36-0.52-0.58-0.52
				c-0.51,0-1.29-0.85-1.29-1.41c0-0.39,0.93-1.51,1.26-1.51c0.07,0,0.38,0.28,0.71,0.62c0.32,0.34,0.86,0.67,1.19,0.75
				c0.45,0.1,0.6,0.25,0.6,0.62c0,0.35,0.17,0.54,0.63,0.7c0.7,0.24,0.78,0.48,0.31,0.94c-0.28,0.28-0.26,0.52,0.12,2.18l0.43,1.87
				l0.91,0.35c0.5,0.19,1.06,0.58,1.24,0.86c0.18,0.28,0.47,0.51,0.64,0.51s0.45,0.23,0.63,0.5c0.39,0.59,1.2,0.85,1.75,0.55
				c0.29-0.16,0.46-0.13,0.66,0.12c0.19,0.23,0.5,0.3,1.05,0.23c0.59-0.08,0.86-0.01,1.14,0.29c0.55,0.61,0.92,0.49,0.92-0.3
				c0-0.47,0.17-0.85,0.52-1.18c0.45-0.42,0.48-0.54,0.24-0.82c-0.59-0.68-0.6-1.46-0.03-2.13c0.29-0.35,0.53-0.75,0.53-0.9
				c0-0.36,0.77-0.55,1.02-0.25c0.11,0.13,0.23,0.52,0.27,0.86c0.06,0.49,0.19,0.65,0.65,0.73c0.72,0.13,1.4,1.12,1.4,2.05
				c0,0.81,0.72,1.94,1.13,1.78c0.38-0.15,0.64,0.31,0.35,0.6c-0.33,0.33-0.29,0.77,0.08,0.77c0.44,0,0.39,0.27-0.29,1.62
				c-0.47,0.94-0.56,1.3-0.41,1.71c0.11,0.28,0.14,0.85,0.07,1.25c-0.1,0.59,0,0.93,0.48,1.69l0.61,0.95l-0.26,1.96
				c-0.15,1.08-0.44,2.53-0.67,3.22c-0.4,1.25-0.4,1.25,0.03,2.15c0.41,0.86,0.46,0.89,1.16,0.77c0.6-0.1,1.14,0.06,2.92,0.89
				c1.43,0.66,2.73,1.11,3.75,1.27c0.86,0.14,2.21,0.55,3.01,0.9c1.39,0.62,1.48,0.64,2.4,0.36c0.52-0.16,1.61-0.29,2.41-0.3
				c0.8-0.01,1.58-0.09,1.72-0.18c0.14-0.09,0.45-0.03,0.69,0.14c0.33,0.23,0.63,0.25,1.4,0.09c0.69-0.15,1.08-0.14,1.34,0.03
				c0.59,0.37,2.86,0.27,4.34-0.19c0.75-0.23,2.38-0.5,3.63-0.6c2.05-0.16,2.33-0.14,2.92,0.22c0.36,0.22,0.96,0.39,1.33,0.4
				c0.38,0,1.02,0.14,1.43,0.31c1.03,0.43,2.13,0.39,2.94-0.11l0.68-0.42l0.19,0.49c0.25,0.67,1.2,0.85,1.89,0.36
				c0.69-0.49,1.34-0.64,3.62-0.81c3.78-0.28,5.25-0.2,5.95,0.32c0.35,0.26,0.81,0.47,1.02,0.47c0.21,0,0.61,0.23,0.88,0.52
				s0.82,0.57,1.24,0.64c1.23,0.21,1.48,0.31,1.48,0.62c0,0.17,0.31,0.35,0.73,0.43c0.54,0.1,0.76,0.27,0.86,0.63
				c0.07,0.27,0.26,0.5,0.42,0.5c0.16,0,0.29,0.09,0.29,0.21c0,0.11,0.12,0.21,0.27,0.21s0.57,0.25,0.94,0.55
				c0.56,0.47,0.67,0.69,0.67,1.47c0,0.76-0.06,0.91-0.36,0.86c-0.2-0.03-0.46,0-0.58,0.08c-0.12,0.07-0.78,0.2-1.47,0.28
				c-1.15,0.13-1.31,0.1-1.9-0.4c-0.36-0.3-0.85-0.54-1.09-0.54c-0.55,0-0.79,0.55-0.47,1.07c0.37,0.59,0.3,1.04-0.49,3.49
				c-0.4,1.24-0.73,2.51-0.73,2.82c0,0.37-0.21,0.75-0.63,1.09c-0.56,0.47-0.63,0.65-0.63,1.74c0,1.1-0.06,1.26-0.64,1.75
				c-0.5,0.42-0.87,0.54-1.67,0.54c-1.11,0-1.14,0.02-0.8,0.66c0.34,0.64-0.06,0.92-0.71,0.49c-0.64-0.42-0.86-0.17-0.66,0.74
				c0.13,0.61-0.41,3.21-0.75,3.6c-0.2,0.23-1.6-0.82-1.76-1.33c-0.07-0.21-0.4-0.48-0.74-0.6l-0.62-0.22v1.01
				c0,0.96-0.03,1.01-0.63,1.1c-0.54,0.08-0.69-0.01-1.07-0.65l-0.45-0.75l-0.16,0.52c-0.09,0.29-0.22,0.78-0.29,1.09
				c-0.18,0.83-1.56,1.5-2.76,1.33c-0.5-0.07-1.32-0.19-1.84-0.26l-0.94-0.13v0.98c0,1.38-0.24,1.71-1.37,1.88
				c-0.85,0.13-1,0.23-1.28,0.9c-0.18,0.43-0.27,1.07-0.21,1.5c0.15,1.14-0.46,2.94-1.1,3.22c-0.96,0.42-1.08,0.87-0.32,1.22
				c0.62,0.28,0.65,0.46,0.15,0.96c-0.36,0.36-0.36,0.41-0.01,1.2c0.2,0.45,0.37,1.07,0.38,1.36c0,0.33,0.24,0.75,0.61,1.08
				c0.34,0.3,0.76,1.02,0.97,1.65c0.2,0.61,0.51,1.21,0.67,1.34c0.25,0.18,0.26,0.32,0.06,0.68c-0.13,0.25-0.2,0.53-0.14,0.62
				c0.05,0.09,0.25,1.24,0.43,2.55c0.28,2.01,0.41,2.47,0.85,2.9c0.48,0.48,0.52,0.49,0.51,0.1c0-0.23-0.1-1-0.21-1.71
				c-0.17-1.04-0.15-1.45,0.1-2.03c0.17-0.4,0.41-0.73,0.53-0.73c0.35,0,1.25,0.65,1.25,0.9c0,0.12,0.18,0.42,0.4,0.65
				c0.47,0.51,1.06,2.4,1.06,3.4c0,0.74,0.73,1.93,1.18,1.93c0.14,0,0.36,0.16,0.48,0.36c0.2,0.34,0.24,0.34,0.58-0.08
				c0.23-0.28,0.7-0.49,1.27-0.56c1.05-0.13,1.91-0.82,1.91-1.54c0-0.28,0.12-0.48,0.3-0.48c0.54,0,0.54-0.35-0.02-2.14
				c-0.66-2.14-0.58-3.08,0.41-4.74c0.51-0.85,0.93-1.27,1.69-1.66c1.58-0.82,1.69-1.1,1.29-3.28c-0.4-2.16-0.41-2.75-0.1-3.54
				c0.22-0.55,0.24-0.56,0.47-0.19c0.51,0.85,1.45,1.79,1.77,1.79c0.19,0,0.61-0.33,0.93-0.73c0.32-0.4,0.81-0.88,1.09-1.07
				c0.47-0.31,0.55-0.31,1.03,0.01c0.32,0.21,0.52,0.54,0.52,0.86c0,0.74,0.29,0.64,0.6-0.21c0.26-0.72,0.27-0.73,0.75-0.36
				c0.43,0.32,0.47,0.49,0.38,1.32c-0.08,0.65,0,1.16,0.22,1.6c0.18,0.35,0.44,1.33,0.58,2.17c0.13,0.84,0.47,1.93,0.75,2.41
				c0.61,1.06,0.85,2.91,0.47,3.62c-0.33,0.62-0.29,2.07,0.11,3.61c0.17,0.65,0.31,1.77,0.31,2.48c0,1.48,0.08,1.65,1.06,2.32
				c0.65,0.45,0.71,0.58,0.71,1.54c0,0.85,0.13,1.24,0.67,2.01c0.58,0.83,0.69,1.18,0.8,2.68c0.07,0.95,0.21,1.96,0.31,2.24
				c0.16,0.45,1.3,7.05,1.6,9.23c0.09,0.69,0.05,0.78-0.34,0.78c-0.38,0-0.42,0.08-0.3,0.57c0.08,0.32,0.4,1.65,0.7,2.97
				c0.52,2.24,0.54,2.46,0.26,3.42c-0.51,1.72,0.03,7.6,0.98,10.76l0.59,1.98l-0.47,0.63c-0.27,0.35-0.71,0.65-1.01,0.69
				c-0.49,0.06-0.57-0.04-0.88-1.15c-0.45-1.6-0.65-1.8-1.48-1.49c-1.05,0.4-1.9-0.07-2.18-1.2c-0.29-1.15-0.85-1.39-1.46-0.62
				c-0.28,0.36-0.63,0.54-1.03,0.54c-0.46,0-0.61,0.1-0.61,0.4c0,0.22-0.33,0.67-0.74,0.99c-0.67,0.54-0.72,0.65-0.53,1.17
				c0.15,0.38,0.15,0.92,0.01,1.64c-0.35,1.86-0.27,2.76,0.32,3.31c0.35,0.33,0.52,0.71,0.52,1.17c0,0.37,0.09,0.74,0.21,0.81
				c0.11,0.07,0.21,0.57,0.21,1.11c0,0.6,0.14,1.19,0.36,1.5c0.67,0.95,1.3,2.53,1.3,3.25c0,0.57-0.08,0.71-0.42,0.71
				C174.97,202.54,174.71,202.23,174.33,201.44z M112.64,172.36c-0.07-0.07-0.12,0.05-0.11,0.27c0.01,0.24,0.06,0.29,0.13,0.13
				C112.72,172.61,112.71,172.43,112.64,172.36z M138.3,171.96c-0.08-0.08-0.14-0.64-0.14-1.25c0-1.07-0.02-1.11-0.68-1.28
				c-0.56-0.15-0.66-0.26-0.6-0.68c0.04-0.27,0.25-0.72,0.46-0.99c0.62-0.79,0.89-2.56,0.65-4.17c-0.12-0.77-0.27-1.91-0.34-2.54
				c-0.13-1.15-0.42-1.76-0.74-1.56c-0.21,0.13-1.03-1.39-1.03-1.9c0-0.22-0.11-0.3-0.31-0.22c-0.5,0.19-0.39-0.8,0.19-1.72
				c0.28-0.44,0.89-1.13,1.37-1.54c0.81-0.69,0.92-0.73,1.63-0.53c1.07,0.29,1.19,0.43,1.47,1.68c0.32,1.45,1.17,3.24,1.89,4.02
				c0.37,0.4,0.67,1.05,0.82,1.77c0.22,1.04,0.18,1.39-0.42,3.86c-0.36,1.49-0.67,3.12-0.68,3.62c-0.02,0.93-0.6,1.7-1.29,1.7
				c-0.16,0-0.4,0.23-0.53,0.52c-0.13,0.29-0.33,0.52-0.45,0.52c-0.12,0-0.41,0.19-0.66,0.42
				C138.65,171.91,138.38,172.04,138.3,171.96z M146.21,169.96c0.27-0.84,0.23-7.71-0.06-8.31c-0.37-0.77,0.12-1.44,1.06-1.44
				c0.96,0,1.38,0.54,1.38,1.76c0,0.68,0.17,1.32,0.55,2c0.5,0.92,0.54,1.13,0.4,2.55c-0.13,1.42-0.19,1.57-0.76,1.9
				c-0.34,0.2-0.76,0.64-0.93,0.98C147.36,170.34,145.93,170.82,146.21,169.96z M156.3,163.99c-0.29-0.08-0.61-0.34-0.72-0.59
				c-0.11-0.25-0.4-0.54-0.64-0.65c-0.71-0.32-1.16-1.52-1.12-3c0.02-0.82-0.09-1.6-0.31-2.08c-0.56-1.29-0.4-1.43,1.12-1
				c0.67,0.19,0.85,0.43,2.17,2.98l1.44,2.77l-0.55,0.87c-0.3,0.48-0.62,0.87-0.71,0.85C156.89,164.14,156.59,164.07,156.3,163.99z
				 M143.65,158.9c-0.36-0.37-0.85-0.83-1.09-1.03c-0.23-0.2-0.48-0.62-0.55-0.94c-0.17-0.78-0.42-1.31-0.94-1.94
				c-0.24-0.29-0.37-0.67-0.31-0.85c0.18-0.46,1.87-1.23,2.71-1.23c0.63,0,0.84,0.15,1.67,1.2c0.55,0.69,0.91,1.35,0.86,1.56
				c-0.05,0.2,0.03,0.46,0.18,0.58c0.21,0.17,0.31,0.12,0.41-0.21c0.11-0.36,0.28-0.43,0.9-0.38c0.71,0.06,0.76,0.11,0.69,0.66
				c-0.06,0.5-0.01,0.57,0.33,0.47c0.33-0.1,0.45,0.03,0.68,0.71c0.39,1.19-0.01,1.61-1.51,1.57c-0.61-0.02-1.28,0.09-1.5,0.24
				C145.45,159.81,144.38,159.63,143.65,158.9z"/>
		</g>
	</g>
	<path class="st2" d="M131.98,2.22c71.68,0,129.81,58.09,129.81,129.75c0,71.72-58.14,129.82-129.81,129.82
		c-71.67,0-129.76-58.09-129.76-129.82C2.22,60.3,60.31,2.22,131.98,2.22 M131.98,0c-17.82,0-35.1,3.49-51.37,10.37
		c-15.72,6.65-29.83,16.16-41.95,28.28C26.53,50.77,17.02,64.88,10.37,80.6C3.49,96.87,0,114.15,0,131.97
		c0,17.83,3.49,35.12,10.37,51.4c6.65,15.72,16.16,29.84,28.28,41.97c12.12,12.12,26.23,21.64,41.95,28.29
		c16.27,6.88,33.56,10.37,51.38,10.37c17.82,0,35.11-3.49,51.39-10.37c15.72-6.65,29.84-16.17,41.97-28.29
		c12.13-12.12,21.65-26.24,28.3-41.97c6.89-16.28,10.38-33.58,10.38-51.4c0-17.82-3.49-35.1-10.38-51.37
		c-6.65-15.71-16.17-29.83-28.3-41.95c-12.13-12.12-26.25-21.63-41.97-28.28C167.09,3.49,149.8,0,131.98,0L131.98,0z"/>
</g>
</svg>
